<?xml version="1.0" standalone="no"?>
<!DOCTYPE svg PUBLIC "-//W3C//DTD SVG 20010904//EN"
 "http://www.w3.org/TR/2001/REC-SVG-20010904/DTD/svg10.dtd">
<svg version="1.0" xmlns="http://www.w3.org/2000/svg"
 width="256.000000pt" height="256.000000pt" viewBox="0 0 256.000000 256.000000"
 preserveAspectRatio="xMidYMid meet">
<metadata>
Created by potrace 1.14, written by Peter Selinger 2001-2017
</metadata>
<g transform="translate(0.000000,256.000000) scale(0.100000,-0.100000)"
fill="#000000" stroke="none">
<path d="M567 2254 c-4 -5 -25 -7 -46 -5 -32 2 -44 -3 -65 -26 -14 -15 -29
-36 -32 -45 -3 -10 -10 -18 -15 -18 -5 0 -9 -5 -9 -10 0 -11 -34 -63 -57 -88
-7 -7 -13 -17 -13 -22 0 -5 -6 -15 -13 -22 -7 -7 -48 -65 -92 -128 -43 -63
-107 -156 -142 -207 -35 -50 -63 -94 -63 -97 0 -4 99 -106 221 -229 812 -818
1032 -1037 1039 -1037 7 0 477 469 1080 1078 100 101 179 189 176 195 -2 7
-45 71 -95 142 -49 72 -136 198 -192 280 -57 83 -106 152 -111 153 -4 2 -8 9
-8 15 -1 7 -11 25 -24 40 l-23 28 -151 -3 c-84 -2 -152 1 -152 5 0 5 -5 5 -11
1 -16 -9 -109 -11 -109 -1 0 5 -5 5 -11 1 -16 -9 -109 -11 -109 -1 0 5 -5 5
-11 1 -16 -9 -109 -11 -109 -1 0 5 -5 5 -11 1 -13 -8 -109 -11 -109 -4 0 3
-28 4 -62 2 -169 -6 -418 -6 -418 1 0 5 -5 5 -11 1 -16 -9 -109 -11 -109 -1 0
5 -5 5 -11 1 -16 -9 -109 -11 -112 -1 -1 5 -6 5 -10 1z m533 -118 c19 1 39 -1
43 -3 4 -3 -19 -32 -51 -66 -33 -34 -72 -76 -88 -94 -16 -17 -62 -68 -103
-112 -41 -45 -91 -100 -112 -123 -21 -24 -40 -40 -43 -37 -10 9 -135 423 -130
430 2 4 94 7 204 6 110 -1 200 1 200 5 0 4 10 4 23 0 12 -4 38 -7 57 -6z m777
2 c62 0 111 -3 109 -6 -2 -4 -39 -104 -82 -222 -42 -118 -79 -217 -81 -220 -3
-3 -19 11 -35 30 -17 19 -75 82 -129 140 -53 58 -111 121 -129 140 -18 19 -49
53 -69 75 -62 67 -68 64 114 62 91 -1 165 2 165 6 0 5 5 5 12 1 6 -4 62 -7
125 -6z m-1358 -60 c5 -18 35 -116 66 -218 31 -102 58 -191 59 -199 1 -12 -35
-15 -222 -15 -123 -1 -225 1 -227 4 -3 5 61 105 97 152 7 9 58 82 112 163 55
80 101 145 102 145 2 0 7 -15 13 -32z m834 -41 c34 -38 82 -91 107 -117 25
-26 79 -85 120 -130 41 -45 85 -93 98 -107 12 -13 22 -27 22 -31 0 -4 -189 -7
-420 -7 -231 0 -420 4 -420 8 0 4 18 26 40 48 22 22 40 42 40 44 0 4 31 37
168 182 28 31 52 57 52 58 0 1 23 26 50 56 28 30 50 56 50 60 0 3 7 6 15 6 9
0 44 -32 78 -70z m757 -5 c14 -20 27 -41 29 -47 2 -5 8 -14 13 -20 46 -56 58
-72 70 -94 7 -14 16 -28 19 -31 3 -3 25 -34 49 -70 24 -36 47 -67 50 -70 4 -3
12 -15 19 -27 9 -18 9 -23 -1 -24 -55 -4 -422 -3 -429 1 -5 3 23 93 62 200 39
107 72 201 74 208 7 20 19 14 45 -26z m-1406 -527 c8 -16 38 -79 66 -140 29
-60 53 -116 53 -122 0 -7 4 -13 9 -13 4 0 8 -5 8 -10 0 -6 24 -62 54 -125 30
-63 60 -130 67 -149 7 -20 17 -36 21 -36 4 0 8 -8 8 -18 0 -10 4 -22 9 -27 10
-12 101 -215 95 -215 -2 0 -29 26 -60 58 -31 31 -223 226 -428 432 -205 206
-375 380 -379 386 -4 7 64 10 228 10 l235 0 14 -31z m1053 18 c0 -7 -4 -13 -9
-13 -4 0 -8 -4 -8 -9 0 -10 -39 -95 -123 -271 -22 -47 -41 -87 -42 -90 0 -3
-13 -32 -29 -65 -16 -33 -29 -62 -28 -65 0 -3 -6 -12 -13 -20 -7 -8 -14 -19
-15 -25 -2 -11 -10 -28 -85 -190 -85 -185 -120 -255 -125 -255 -3 0 -46 87
-95 193 -49 105 -106 227 -126 270 -21 42 -39 81 -40 85 0 4 -17 41 -36 82
-19 41 -47 100 -61 130 -13 30 -44 97 -68 148 -24 52 -44 97 -44 101 0 4 213
7 473 7 378 0 474 -3 474 -13z m581 8 c3 -1 -158 -164 -822 -832 -27 -27 -51
-49 -53 -49 -2 0 5 17 16 38 51 100 104 223 101 231 -1 2 2 7 7 10 11 8 59
113 55 123 -1 4 2 8 7 8 5 0 12 10 16 23 10 31 7 24 47 107 118 247 141 296
144 308 7 36 19 38 251 36 125 -1 230 -2 231 -3z"/>
</g>
</svg>
